<?xml version="1.0" standalone="no"?>
<!DOCTYPE svg PUBLIC "-//W3C//DTD SVG 20010904//EN"
 "http://www.w3.org/TR/2001/REC-SVG-20010904/DTD/svg10.dtd">
<svg version="1.0" xmlns="http://www.w3.org/2000/svg"
 width="91.000000pt" height="91.000000pt" viewBox="0 0 91.000000 91.000000"
 preserveAspectRatio="xMidYMid meet">
<metadata>
Created by potrace 1.11, written by Peter Selinger 2001-2013
</metadata>
<g transform="translate(0.000000,91.000000) scale(0.100000,-0.100000)"
fill="#000000" stroke="none">
<path d="M0 455 l0 -455 455 0 455 0 0 455 0 455 -455 0 -455 0 0 -455z m395
379 c-44 -16 -79 -45 -106 -89 -11 -16 -19 -25 -19 -19 0 41 98 124 145 123
12 0 4 -6 -20 -15z m96 -12 c15 -9 49 -41 75 -71 l49 -54 0 -126 c0 -108 -4
-134 -23 -184 -71 -175 -209 -236 -301 -132 -48 55 -40 121 20 175 9 8 24 26
32 40 13 23 13 29 -10 75 -13 28 -35 68 -48 90 -14 22 -25 49 -24 60 0 12 5 5
13 -17 7 -20 24 -49 37 -65 22 -26 30 -28 89 -27 l65 1 -63 -4 c-64 -4 -64 -4
-57 -31 11 -44 24 -52 81 -52 l54 0 -6 -70 -7 -70 47 0 46 0 0 84 c0 77 2 87
26 116 23 27 26 37 21 80 -7 62 -25 99 -38 79 -7 -11 -9 -11 -9 3 0 24 -59 88
-95 104 -16 7 -23 13 -15 14 8 0 27 -8 41 -18z m-9 -104 c40 -33 19 -88 -32
-88 -16 0 -32 -4 -35 -10 -10 -16 -44 -11 -54 8 -10 19 3 52 21 52 6 0 21 11
34 25 26 28 43 31 66 13z m69 -68 c-44 -33 -88 -56 -74 -39 7 9 29 24 48 35
19 10 35 23 35 28 0 5 3 6 7 2 4 -4 -3 -16 -16 -26z m-188 -515 c-3 -9 -8 -14
-10 -11 -3 3 -2 9 2 15 9 16 15 13 8 -4z"/>
<path d="M581 523 c-6 -21 -11 -63 -10 -93 l1 -55 15 35 c20 45 30 150 15 150
-6 0 -16 -17 -21 -37z"/>
<path d="M360 481 c0 -6 -20 -33 -45 -61 -38 -43 -45 -57 -45 -92 0 -34 6 -46
35 -73 67 -64 136 -55 210 27 42 47 50 71 22 67 -7 -1 -27 -1 -45 0 l-34 1 4
68 3 67 -52 3 c-31 2 -53 -1 -53 -7z"/>
<path d="M445 690 c-4 -6 -3 -16 3 -22 6 -6 12 -6 17 2 4 6 3 16 -3 22 -6 6
-12 6 -17 -2z"/>
<path d="M380 650 c0 -5 5 -10 10 -10 6 0 10 5 10 10 0 6 -4 10 -10 10 -5 0
-10 -4 -10 -10z"/>
</g>
</svg>
