<?xml version="1.0" standalone="no"?>
<!DOCTYPE svg PUBLIC "-//W3C//DTD SVG 20010904//EN"
 "http://www.w3.org/TR/2001/REC-SVG-20010904/DTD/svg10.dtd">
<svg version="1.0" xmlns="http://www.w3.org/2000/svg"
 width="353.000000pt" height="353.000000pt" viewBox="0 0 353.000000 353.000000"
 preserveAspectRatio="xMidYMid meet">
<metadata>
Created by potrace 1.11, written by Peter Selinger 2001-2013
</metadata>
<g transform="translate(0.000000,353.000000) scale(0.100000,-0.100000)"
fill="#000000" stroke="none">
<path d="M0 1765 l0 -1765 1765 0 1765 0 0 1765 0 1765 -1765 0 -1765 0 0
-1765z m1713 1709 c138 -35 286 -137 400 -273 36 -43 106 -116 156 -162 54
-49 100 -101 112 -126 34 -69 51 -202 57 -448 8 -285 6 -390 -8 -480 -89 -551
-395 -1028 -745 -1156 -48 -18 -82 -23 -170 -23 -130 0 -193 20 -323 103 -187
120 -283 281 -269 451 11 133 79 250 232 400 86 84 154 172 179 232 12 28 11
34 -10 65 -26 38 -118 269 -129 323 -5 23 -28 57 -67 99 -243 260 -236 508 23
785 175 187 369 260 562 210z m490 -2447 c23 -157 31 -397 21 -597 -10 -182
-13 -158 -45 293 -13 180 -25 327 -28 327 -3 -1 -35 -27 -70 -59 l-65 -59 -20
-236 c-11 -130 -23 -236 -26 -236 -3 0 -25 72 -49 160 -24 88 -48 160 -52 160
-4 0 -29 -9 -56 -21 -79 -34 -202 -59 -290 -59 l-82 0 -9 -32 c-5 -18 -31
-115 -57 -216 -26 -100 -49 -181 -51 -179 -1 1 -19 108 -38 236 -19 128 -38
236 -41 239 -3 4 -26 14 -50 23 -41 16 -45 16 -49 0 -2 -9 -22 -165 -43 -348
-20 -182 -39 -330 -40 -329 -5 5 -84 948 -80 952 2 3 16 -13 31 -34 24 -35 29
-58 46 -208 11 -93 20 -178 21 -189 2 -42 18 53 24 151 4 56 11 107 15 114 5
8 31 -2 91 -36 46 -27 87 -53 90 -58 4 -5 13 -60 20 -122 7 -63 15 -114 19
-114 3 0 16 46 29 103 l23 103 96 -4 c157 -6 301 34 384 107 l36 32 10 -48
c38 -184 35 -172 43 -133 4 19 11 82 15 139 l7 105 82 86 c45 47 87 96 94 108
7 13 15 21 19 18 3 -4 15 -66 25 -139z"/>
<path d="M1464 3412 c-116 -41 -240 -137 -337 -264 -79 -103 -110 -175 -115
-269 -6 -99 14 -167 78 -262 112 -167 188 -202 440 -202 204 1 255 12 295 68
17 23 51 57 76 76 43 31 45 36 36 60 -8 23 -5 34 19 70 34 53 45 146 22 201
-43 103 -156 165 -258 142 -31 -7 -37 -4 -68 29 -18 21 -64 63 -103 95 l-69
57 32 24 c46 34 131 56 182 49 74 -11 163 -61 230 -129 81 -80 136 -163 202
-301 l53 -111 16 40 c15 34 16 49 5 115 -14 93 -43 153 -123 252 -179 224
-421 326 -613 260z m408 -457 c62 -44 90 -105 86 -181 -4 -71 -34 -123 -94
-164 -49 -33 -144 -39 -194 -13 l-35 18 -20 -34 c-60 -103 -208 -98 -262 9
-28 55 -29 82 -3 135 28 58 85 89 150 83 47 -5 49 -4 55 22 11 52 60 116 106
139 64 32 153 26 211 -14z"/>
<path d="M1716 2831 c-40 -44 8 -115 58 -89 41 22 47 57 16 88 -25 25 -52 25
-74 1z"/>
<path d="M1468 2709 c-38 -22 -5 -79 36 -63 19 7 21 45 4 62 -14 14 -18 14
-40 1z"/>
<path d="M2247 2928 c15 -98 9 -149 -27 -226 -32 -70 -43 -82 -55 -62 -9 14
-29 3 -174 -93 -96 -64 -137 -97 -144 -118 -10 -24 -22 -31 -91 -51 -69 -19
-104 -23 -236 -23 -131 0 -164 4 -211 21 l-57 20 14 -47 c23 -78 94 -243 113
-262 27 -27 219 -50 361 -43 l116 6 -4 -107 c-1 -60 -7 -189 -12 -288 -5 -99
-6 -182 -3 -185 6 -6 321 -5 327 1 12 12 26 270 26 484 l0 241 46 44 c64 62
132 155 143 197 18 63 -15 362 -48 438 -19 44 -67 105 -82 105 -6 0 -7 -21 -2
-52z m-85 -778 l-9 -155 -1 205 c-1 113 1 237 6 275 7 67 7 65 10 -50 1 -66
-2 -190 -6 -275z m-271 -175 c0 -148 -4 -301 -9 -340 -7 -50 -9 45 -9 340 0
295 2 390 9 340 5 -38 9 -191 9 -340z m-81 370 c0 -2 -33 -15 -72 -27 -62 -19
-93 -23 -203 -22 -199 2 -217 19 -22 20 105 1 183 7 222 17 74 18 75 18 75 12z"/>
<path d="M2327 2244 l-48 -53 -4 -83 c-3 -46 -9 -117 -14 -158 -6 -41 -12
-151 -15 -245 -5 -147 -3 -167 8 -145 26 47 85 238 106 341 24 116 37 318 24
365 l-9 31 -48 -53z"/>
<path d="M1386 1967 c-27 -67 -96 -156 -196 -256 -165 -165 -217 -266 -208
-407 4 -52 13 -89 33 -131 56 -115 224 -250 366 -294 211 -66 443 34 636 274
60 75 159 225 152 231 -2 2 -40 6 -84 9 -44 3 -72 3 -62 0 24 -6 22 -13 -20
-64 -110 -133 -219 -223 -321 -265 -70 -29 -181 -32 -241 -8 l-40 16 94 104
c95 105 215 259 255 326 18 32 22 61 30 210 5 95 10 194 10 219 l0 46 -157 7
c-87 3 -175 9 -195 12 -35 6 -38 4 -52 -29z"/>
<path d="M1873 1403 c9 -2 25 -2 35 0 9 3 1 5 -18 5 -19 0 -27 -2 -17 -5z"/>
</g>
</svg>
